<?xml version="1.0" encoding="UTF-8" standalone="no"?>
<svg
   xmlns:dc="http://purl.org/dc/elements/1.1/"
   xmlns:cc="http://creativecommons.org/ns#"
   xmlns:rdf="http://www.w3.org/1999/02/22-rdf-syntax-ns#"
   xmlns:svg="http://www.w3.org/2000/svg"
   xmlns="http://www.w3.org/2000/svg"
   xmlns:sodipodi="http://sodipodi.sourceforge.net/DTD/sodipodi-0.dtd"
   xmlns:inkscape="http://www.inkscape.org/namespaces/inkscape"
   version="1.1"
   x="0px"
   y="0px"
   viewBox="0 0 100 100"
   enable-background="new 0 0 100 100"
   xml:space="preserve"
   id="svg3893"
   sodipodi:docname="cacao.svg"
   inkscape:label="Outline"
   inkscape:version="0.92.2 5c3e80d, 2017-08-06"
   inkscape:export-filename="cacao.png"
   inkscape:export-xdpi="96"
   inkscape:export-ydpi="96"><metadata
     id="metadata3899"><rdf:RDF><cc:Work
         rdf:about=""><dc:format>image/svg+xml</dc:format><dc:type
           rdf:resource="http://purl.org/dc/dcmitype/StillImage" /><dc:title /></cc:Work></rdf:RDF></metadata><defs
     id="defs3897" /><sodipodi:namedview
     pagecolor="#ffffff"
     bordercolor="#666666"
     borderopacity="1"
     objecttolerance="10"
     gridtolerance="10"
     guidetolerance="10"
     inkscape:pageopacity="0"
     inkscape:pageshadow="2"
     inkscape:window-width="1427"
     inkscape:window-height="911"
     id="namedview3895"
     showgrid="false"
     inkscape:pagecheckerboard="true"
     showborder="true"
     inkscape:zoom="7.6404924"
     inkscape:cx="27.5544"
     inkscape:cy="50.00035"
     inkscape:window-x="0"
     inkscape:window-y="602"
     inkscape:window-maximized="0"
     inkscape:current-layer="svg3893" /><path
     id="path4033"
     style="display:inline;fill:#ffffff;fill-opacity:1;stroke:#ffffff;stroke-width:3;stroke-miterlimit:4;stroke-dasharray:none;stroke-opacity:1"
     d="m 69.398438,3.4746094 c -2.10462,0.141248 -1.902344,2.21075 -1.902344,6.2578125 0,2.1402861 -0.5722,3.6304151 -1.097656,4.6406251 -3.620219,-0.324391 -9.014161,0.0124 -9.56836,4.904297 -0.886,7.826 -16.653922,18.99464 -13.669922,45.68164 2.14,19.143 14.668844,31.574219 21.839844,31.574219 5.977,0 17.618453,-10.724469 22.189453,-35.605469 3.178,-17.303 -6.757875,-33.651265 -6.296875,-37.822265 0.164701,-1.490873 -1.459867,-10.280115 -9.896484,-8.56836 -0.0065,-1.064487 0.239635,-2.506228 1.283203,-4.5449215 1.797,-3.51 3.129562,-5.3695938 -1.023438,-6.3085937 C 70.493672,3.5112813 69.884119,3.4420137 69.398438,3.4746094 Z M 52.482422,22.382812 c -2.049111,-0.0064 -5.354453,1.040782 -6.158203,3.207032 -1.429,3.855 -4.666813,8.591297 -12.382813,13.529297 -7.716,4.938 -12.603234,10.954437 -18.115234,19.773437 -5.512,8.819 -3.134766,24.966797 -3.134766,24.966797 12.977,-32.64 24.522047,-39.971891 34.748047,-50.712891 2.725,-2.863 5.4065,-7.854906 6.5625,-9.628906 0.487125,-0.748125 -0.290064,-1.130951 -1.519531,-1.134766 z m -4.3125,12.035157 c 0,0 -10.625047,9.366515 -15.498047,15.728515 -8.655,11.301 -14.780031,22.69033 -18.332031,32.611328 -3.552,9.921001 -0.61511,11.727969 1.83789,10.042969 9.611,-6.601 25.783203,-26.296875 25.783204,-26.296875 -3.235,-18.957 6.208984,-32.085937 6.208984,-32.085937 z m -6.21875,33.910156 c 0,0 -10.668734,12.237094 -16.302734,17.871094 -5.634001,5.634 -10.451172,8.072265 -10.451172,8.072265 17.637,0 31.111328,-13.423828 31.111328,-13.423828 0,0 -0.899141,-2.668656 -2.369141,-6.097656 -1.47,-3.429 -1.988281,-6.421875 -1.988281,-6.421875 z M 46.910156,81.75 c 0,0 -3.628843,3.109547 -5.089844,4.060547 -1.673999,1.09 -7.460937,4.058594 -7.460937,4.058594 6.243,-2.141 14.107422,-5.5625 14.107422,-5.5625 z"
     inkscape:connector-curvature="0"
     sodipodi:nodetypes="sscccscccccsccssccccccsccccsccscccccc" /><g
     id="g4007"
     style="display:inline"><path
       style="fill:#795548"
       inkscape:connector-curvature="0"
       id="path3819"
       d="m 80.892,23.105 c -0.461,4.171 9.475,20.52 6.297,37.823 C 82.618,85.809 70.977,96.534 65,96.534 57.829,96.534 45.3,84.102 43.16,64.959 40.176,38.272 55.944,27.104 56.83,19.278 57.668,11.881 69.674,14.87 69.674,14.87 c 9.597,-2.958 11.391,6.669 11.218,8.235 z M 69.109,21.582 C 59.581,20.638 50.339,35.196 48.467,54.097 46.595,72.998 52.801,89.086 62.33,90.03 71.859,90.974 81.1,76.416 82.972,57.515 84.843,38.614 78.637,22.526 69.109,21.582 Z" /><path
       style="fill:#795548"
       d="m 70.476002,28.09 a 3.257,2.698 0 0 1 -3.257,2.698 3.257,2.698 0 0 1 -3.257,-2.698 3.257,2.698 0 0 1 3.257,-2.698 3.257,2.698 0 0 1 3.257,2.698 z"
       id="ellipse3821"
       inkscape:connector-curvature="0" /><path
       style="fill:#795548"
       d="m 76.662001,31.326 a 2.608,2.1600001 0 0 1 -2.608,2.16 2.608,2.1600001 0 0 1 -2.608,-2.16 2.608,2.1600001 0 0 1 2.608,-2.16 2.608,2.1600001 0 0 1 2.608,2.16 z"
       id="ellipse3823"
       inkscape:connector-curvature="0" /><path
       transform="rotate(4.9625433)"
       style="fill:#795548;stroke-width:0.99994832"
       d="m 72.183033,78.603752 a 3.2568316,2.2798822 0 0 1 -3.256832,2.279882 3.2568316,2.2798822 0 0 1 -3.256832,-2.279882 3.2568316,2.2798822 0 0 1 3.256832,-2.279882 3.2568316,2.2798822 0 0 1 3.256832,2.279882 z"
       id="ellipse3825"
       inkscape:connector-curvature="0" /><path
       transform="rotate(4.9625433)"
       style="fill:#795548;stroke-width:0.99994832"
       d="m 81.54186,29.617178 a 2.7698569,1.9388999 0 0 1 -2.769857,1.9389 2.7698569,1.9388999 0 0 1 -2.769857,-1.9389 2.7698569,1.9388999 0 0 1 2.769857,-1.9389 2.7698569,1.9388999 0 0 1 2.769857,1.9389 z"
       id="ellipse3827"
       inkscape:connector-curvature="0" /><path
       transform="rotate(4.9625433)"
       style="fill:#795548;stroke-width:0.99994832"
       d="m 74.073335,27.64027 a 4.0637903,1.9388999 0 0 1 -4.063791,1.9389 4.0637903,1.9388999 0 0 1 -4.06379,-1.9389 4.0637903,1.9388999 0 0 1 4.06379,-1.9389 4.0637903,1.9388999 0 0 1 4.063791,1.9389 z"
       id="ellipse3829"
       inkscape:connector-curvature="0" /><path
       transform="rotate(10.637958)"
       style="fill:#795548;stroke-width:0.99998653"
       d="m 86.760485,27.327381 a 4.2749424,2.9929597 0 0 1 -4.274943,2.99296 4.2749424,2.9929597 0 0 1 -4.274942,-2.99296 4.2749424,2.9929597 0 0 1 4.274942,-2.99296 4.2749424,2.9929597 0 0 1 4.274943,2.99296 z"
       id="ellipse3831"
       inkscape:connector-curvature="0" /><path
       transform="rotate(2.8543942)"
       style="fill:#795548;stroke-width:1.00004077"
       d="m 73.018586,35.61272 a 4.9152002,3.1051266 0 0 1 -4.9152,3.105127 4.9152002,3.1051266 0 0 1 -4.9152,-3.105127 4.9152002,3.1051266 0 0 1 4.9152,-3.105126 4.9152002,3.1051266 0 0 1 4.9152,3.105126 z"
       id="ellipse3833"
       inkscape:connector-curvature="0" /><path
       style="fill:#795548"
       inkscape:connector-curvature="0"
       id="path3835"
       d="m 70.782,45.779 c -0.287,1.78 -2.473,3.146 -5.324,3.003 -2.85,-0.142 -4.998,-1.715 -4.998,-3.518 0,-3.795 2.311,-2.134 5.161,-1.992 2.85,0.142 5.681,-0.72 5.161,2.507 z" /><path
       style="fill:#795548"
       inkscape:connector-curvature="0"
       id="path3837"
       d="m 70.906,52.156 c -0.295,1.508 -2.697,2.64 -5.853,2.483 -3.156,-0.157 -5.553,-1.521 -5.577,-3.053 -0.049,-3.224 2.53,-1.783 5.686,-1.626 3.156,0.157 6.278,-0.538 5.744,2.196 z" /><path
       style="fill:#795548"
       inkscape:connector-curvature="0"
       id="path3839"
       d="m 71.556,57.678 c -0.168,1.531 -2.672,2.901 -6.129,3.064 -3.457,0.164 -6.21,-0.95 -6.391,-2.472 -0.381,-3.203 2.577,-2.031 6.034,-2.195 3.457,-0.162 6.79,-1.172 6.486,1.603 z" /><path
       style="fill:#795548"
       inkscape:connector-curvature="0"
       id="path3841"
       d="m 71.024,63.754 c -0.051,1.707 -2.398,3.361 -5.768,3.727 -3.369,0.366 -6.144,-0.722 -6.434,-2.4 -0.61,-3.532 2.37,-2.391 5.739,-2.757 3.37,-0.367 6.555,-1.665 6.463,1.43 z" /><path
       style="fill:#795548"
       inkscape:connector-curvature="0"
       id="path3843"
       d="m 70.553,69.956 c -0.051,1.707 -2.398,3.361 -5.768,3.727 -3.369,0.366 -6.144,-0.722 -6.434,-2.4 -0.61,-3.532 2.37,-2.391 5.739,-2.757 3.37,-0.367 6.555,-1.665 6.463,1.43 z" /><path
       style="fill:#795548"
       inkscape:connector-curvature="0"
       id="path3845"
       d="m 68.215,76.506 c 0.005,1.701 -1.751,3.29 -4.322,3.57 -2.571,0.28 -4.723,-0.876 -4.988,-2.557 -0.557,-3.538 1.754,-2.324 4.325,-2.604 2.57,-0.28 4.977,-1.493 4.985,1.591 z" /><path
       transform="rotate(10.637958)"
       style="fill:#795548;stroke-width:0.99998653"
       d="m 87.990786,33.404629 a 4.2749424,2.518966 0 0 1 -4.274943,2.518966 4.2749424,2.518966 0 0 1 -4.274942,-2.518966 4.2749424,2.518966 0 0 1 4.274942,-2.518966 4.2749424,2.518966 0 0 1 4.274943,2.518966 z"
       id="ellipse3847"
       inkscape:connector-curvature="0" /><path
       transform="rotate(10.637958)"
       style="fill:#795548;stroke-width:0.99998653"
       d="m 89.611655,39.034737 a 3.8989472,2.518966 0 0 1 -3.898947,2.518966 3.8989472,2.518966 0 0 1 -3.898948,-2.518966 3.8989472,2.518966 0 0 1 3.898948,-2.518966 3.8989472,2.518966 0 0 1 3.898947,2.518966 z"
       id="ellipse3849"
       inkscape:connector-curvature="0" /><path
       transform="rotate(10.637958)"
       style="fill:#795548;stroke-width:0.99998653"
       d="m 89.361102,51.521519 a 3.4219537,2.3909678 0 0 1 -3.421954,2.390968 3.4219537,2.3909678 0 0 1 -3.421954,-2.390968 3.4219537,2.3909678 0 0 1 3.421954,-2.390968 3.4219537,2.3909678 0 0 1 3.421954,2.390968 z"
       id="ellipse3851"
       inkscape:connector-curvature="0" /><path
       transform="rotate(10.637958)"
       style="fill:#795548;stroke-width:0.99998653"
       d="m 89.47294,45.495167 a 3.4489534,2.9559603 0 0 1 -3.448953,2.95596 3.4489534,2.9559603 0 0 1 -3.448954,-2.95596 3.4489534,2.9559603 0 0 1 3.448954,-2.95596 3.4489534,2.9559603 0 0 1 3.448953,2.95596 z"
       id="ellipse3853"
       inkscape:connector-curvature="0" /><path
       transform="rotate(32.868457)"
       style="fill:#795548;stroke-width:0.99997765"
       d="m 104.76307,20.818867 a 3.4489229,2.6639404 0 0 1 -3.44892,2.66394 3.4489229,2.6639404 0 0 1 -3.448925,-2.66394 3.4489229,2.6639404 0 0 1 3.448925,-2.663941 3.4489229,2.6639404 0 0 1 3.44892,2.663941 z"
       id="ellipse3855"
       inkscape:connector-curvature="0" /><path
       transform="rotate(-17.289766)"
       style="fill:#795548;stroke-width:0.99998546"
       d="m 35.482439,81.299248 a 3.4489496,2.6639612 0 0 1 -3.44895,2.663961 3.4489496,2.6639612 0 0 1 -3.448949,-2.663961 3.4489496,2.6639612 0 0 1 3.448949,-2.663961 3.4489496,2.6639612 0 0 1 3.44895,2.663961 z"
       id="ellipse3857"
       inkscape:connector-curvature="0" /><path
       transform="rotate(-17.289766)"
       style="fill:#795548;stroke-width:0.99998546"
       d="m 38.117981,75.194435 a 4.1089406,2.6639612 0 0 1 -4.10894,2.663961 4.1089406,2.6639612 0 0 1 -4.108941,-2.663961 4.1089406,2.6639612 0 0 1 4.108941,-2.663961 4.1089406,2.6639612 0 0 1 4.10894,2.663961 z"
       id="ellipse3859"
       inkscape:connector-curvature="0" /><path
       transform="rotate(-17.289766)"
       style="fill:#795548;stroke-width:0.99998546"
       d="m 39.922936,69.154175 a 4.1089406,2.6639612 0 0 1 -4.108941,2.663961 4.1089406,2.6639612 0 0 1 -4.10894,-2.663961 4.1089406,2.6639612 0 0 1 4.10894,-2.663961 4.1089406,2.6639612 0 0 1 4.108941,2.663961 z"
       id="ellipse3861"
       inkscape:connector-curvature="0" /><path
       transform="rotate(-35.75147)"
       style="fill:#795548;stroke-width:1.00005054"
       d="M 24.15729,68.126869 A 3.7491894,2.7561393 0 0 1 20.4081,70.883008 3.7491894,2.7561393 0 0 1 16.658911,68.126869 3.7491894,2.7561393 0 0 1 20.4081,65.37073 3.7491894,2.7561393 0 0 1 24.15729,68.126869 Z"
       id="ellipse3863"
       inkscape:connector-curvature="0" /><path
       transform="rotate(-35.75147)"
       style="fill:#795548;stroke-width:1.00005054"
       d="m 28.362102,63.95462 a 2.7621396,2.1921108 0 0 1 -2.76214,2.192111 2.7621396,2.1921108 0 0 1 -2.762139,-2.192111 2.7621396,2.1921108 0 0 1 2.762139,-2.19211 2.7621396,2.1921108 0 0 1 2.76214,2.19211 z"
       id="ellipse3865"
       inkscape:connector-curvature="0" /><path
       transform="rotate(-35.75147)"
       style="fill:#795548;stroke-width:1.00005054"
       d="m 33.402711,61.371986 a 2.7621396,2.1921108 0 0 1 -2.762139,2.192111 2.7621396,2.1921108 0 0 1 -2.76214,-2.192111 2.7621396,2.1921108 0 0 1 2.76214,-2.19211 2.7621396,2.1921108 0 0 1 2.762139,2.19211 z"
       id="ellipse3867"
       inkscape:connector-curvature="0" /><path
       transform="rotate(-17.289766)"
       style="fill:#795548;stroke-width:0.99998546"
       d="m 41.513017,63.703426 a 3.3989503,2.2039678 0 0 1 -3.39895,2.203968 3.3989503,2.2039678 0 0 1 -3.39895,-2.203968 3.3989503,2.2039678 0 0 1 3.39895,-2.203967 3.3989503,2.2039678 0 0 1 3.39895,2.203967 z"
       id="ellipse3869"
       inkscape:connector-curvature="0" /><path
       transform="rotate(48.234663)"
       style="fill:#795548;stroke-width:1.00002801"
       d="m 100.51224,10.883031 a 2.9450824,2.1330597 0 0 1 -2.945086,2.13306 2.9450824,2.1330597 0 0 1 -2.945082,-2.13306 2.9450824,2.1330597 0 0 1 2.945082,-2.1330598 2.9450824,2.1330597 0 0 1 2.945086,2.1330598 z"
       id="ellipse3871"
       inkscape:connector-curvature="0" /><path
       transform="rotate(32.873269)"
       style="fill:#795548;stroke-width:1.00003195"
       d="m 105.19213,26.438911 a 2.3930762,2.3550751 0 0 1 -2.39308,2.355076 2.3930762,2.3550751 0 0 1 -2.39308,-2.355076 2.3930762,2.3550751 0 0 1 2.39308,-2.355075 2.3930762,2.3550751 0 0 1 2.39308,2.355075 z"
       id="ellipse3873"
       inkscape:connector-curvature="0" /><path
       transform="rotate(32.873269)"
       style="fill:#795548;stroke-width:1.00003195"
       d="m 104.15079,31.862839 a 2.3930762,2.3550751 0 0 1 -2.39308,2.355075 2.3930762,2.3550751 0 0 1 -2.393073,-2.355075 2.3930762,2.3550751 0 0 1 2.393073,-2.355075 2.3930762,2.3550751 0 0 1 2.39308,2.355075 z"
       id="ellipse3875"
       inkscape:connector-curvature="0" /><path
       transform="rotate(32.873269)"
       style="fill:#795548;stroke-width:1.00003195"
       d="m 89.106638,32.283169 a 2.3930762,2.3550751 0 0 1 -2.393076,2.355075 2.3930762,2.3550751 0 0 1 -2.393076,-2.355075 2.3930762,2.3550751 0 0 1 2.393076,-2.355075 2.3930762,2.3550751 0 0 1 2.393076,2.355075 z"
       id="ellipse3877"
       inkscape:connector-curvature="0" /><path
       style="fill:#795548"
       inkscape:connector-curvature="0"
       id="path3879"
       d="m 16.177,92.801 c -2.453,1.685 -5.389,-0.122 -1.837,-10.043 3.552,-9.921 9.676,-21.311 18.331,-32.612 4.873,-6.362 15.498,-15.729 15.498,-15.729 0,0 -9.443,13.13 -6.208,32.087 0,0 -16.173,19.696 -25.784,26.297 z" /><path
       style="fill:#795548"
       inkscape:connector-curvature="0"
       id="path3881"
       d="m 47.439,33.146 c 2.725,-2.863 5.407,-7.855 6.563,-9.629 1.299,-1.995 -6.392,-1.394 -7.678,2.072 C 44.895,29.444 41.658,34.182 33.942,39.12 26.226,44.058 21.339,50.074 15.827,58.893 10.315,67.712 12.692,83.86 12.692,83.86 25.669,51.22 37.213,43.887 47.439,33.146 Z" /><path
       style="fill:#795548"
       inkscape:connector-curvature="0"
       id="path3883"
       d="m 46.308,80.848 c 0,0 -0.899,-2.669 -2.369,-6.098 -1.47,-3.429 -1.987,-6.421 -1.987,-6.421 0,0 -10.67,12.237 -16.304,17.871 -5.634,5.634 -10.451,8.071 -10.451,8.071 17.637,0 31.111,-13.423 31.111,-13.423 z" /><path
       style="fill:#795548"
       inkscape:connector-curvature="0"
       id="path3885"
       d="M 48.466,84.306 46.911,81.75 c 0,0 -3.63,3.109 -5.091,4.06 -1.674,1.09 -7.46,4.06 -7.46,4.06 6.243,-2.141 14.106,-5.564 14.106,-5.564 z" /><path
       style="fill:#795548"
       inkscape:connector-curvature="0"
       id="path3887"
       d="m 71.15,17.197 c 0.684,-0.684 -1.412,-2.238 1.13,-7.204 1.797,-3.51 3.128,-5.37 -1.025,-6.309 -4.065,-0.919 -3.759,1.068 -3.759,6.049 0,4.981 -3.108,6.614 -1.481,6.238 3.289,-0.759 4.743,1.618 5.135,1.226 z" /></g></svg>